<?xml version="1.0" encoding="UTF-8"?> <svg xmlns="http://www.w3.org/2000/svg" width="79" height="17" viewBox="0 0 79 17" fill="none"><path d="M9.19531 4.82031C9.13281 4.1901 8.86458 3.70052 8.39062 3.35156C7.91667 3.0026 7.27344 2.82812 6.46094 2.82812C5.90885 2.82812 5.44271 2.90625 5.0625 3.0625C4.68229 3.21354 4.39063 3.42448 4.1875 3.69531C3.98958 3.96615 3.89062 4.27344 3.89062 4.61719C3.88021 4.90365 3.9401 5.15365 4.07031 5.36719C4.20573 5.58073 4.39063 5.76563 4.625 5.92188C4.85938 6.07292 5.13021 6.20573 5.4375 6.32031C5.74479 6.42969 6.07292 6.52344 6.42188 6.60156L7.85938 6.94531C8.55729 7.10156 9.19792 7.3099 9.78125 7.57031C10.3646 7.83073 10.8698 8.15104 11.2969 8.53125C11.724 8.91146 12.0547 9.35938 12.2891 9.875C12.5286 10.3906 12.651 10.9818 12.6562 11.6484C12.651 12.6276 12.401 13.4766 11.9063 14.1953C11.4167 14.9089 10.7083 15.4635 9.78125 15.8594C8.85938 16.25 7.7474 16.4453 6.44531 16.4453C5.15365 16.4453 4.02865 16.2474 3.07031 15.8516C2.11719 15.4557 1.3724 14.8698 0.835938 14.0938C0.304688 13.3125 0.0260417 12.3464 0 11.1953H3.27344C3.3099 11.7318 3.46354 12.1797 3.73438 12.5391C4.01042 12.8932 4.3776 13.1615 4.83594 13.3438C5.29948 13.5208 5.82292 13.6094 6.40625 13.6094C6.97917 13.6094 7.47656 13.526 7.89844 13.3594C8.32552 13.1927 8.65625 12.9609 8.89062 12.6641C9.125 12.3672 9.24219 12.026 9.24219 11.6406C9.24219 11.2812 9.13542 10.9792 8.92188 10.7344C8.71354 10.4896 8.40625 10.2812 8 10.1094C7.59896 9.9375 7.10677 9.78125 6.52344 9.64062L4.78125 9.20312C3.43229 8.875 2.36719 8.36198 1.58594 7.66406C0.804688 6.96615 0.416667 6.02604 0.421875 4.84375C0.416667 3.875 0.674479 3.02865 1.19531 2.30469C1.72135 1.58073 2.44271 1.01563 3.35938 0.609375C4.27604 0.203125 5.31771 0 6.48438 0C7.67188 0 8.70833 0.203125 9.59375 0.609375C10.4844 1.01563 11.1771 1.58073 11.6719 2.30469C12.1667 3.02865 12.4219 3.86719 12.4375 4.82031H9.19531Z" fill="#2D3745"></path><path d="M16.0316 16.2188V0.21875H22.3441C23.5577 0.21875 24.5915 0.450521 25.4457 0.914063C26.2999 1.3724 26.9509 2.01042 27.3988 2.82812C27.852 3.64062 28.0785 4.57813 28.0785 5.64063C28.0785 6.70313 27.8494 7.64063 27.391 8.45312C26.9327 9.26562 26.2686 9.89844 25.3988 10.3516C24.5342 10.8047 23.4874 11.0312 22.2582 11.0312H18.2348V8.32031H21.7113C22.3624 8.32031 22.8988 8.20833 23.3207 7.98438C23.7478 7.75521 24.0655 7.4401 24.2738 7.03906C24.4874 6.63281 24.5941 6.16667 24.5941 5.64063C24.5941 5.10938 24.4874 4.64583 24.2738 4.25C24.0655 3.84896 23.7478 3.53906 23.3207 3.32031C22.8936 3.09635 22.352 2.98438 21.6957 2.98438H19.4145V16.2188H16.0316Z" fill="#2D3745"></path><path d="M30.4383 0.21875H34.2273L37.8758 7.10938H38.032L41.6805 0.21875H45.4695L39.6336 10.5625V16.2188H36.2742V10.5625L30.4383 0.21875Z" fill="#2D3745"></path><path d="M48.4172 16.2188V0.21875H54.7297C55.938 0.21875 56.9693 0.434896 57.8234 0.867188C58.6828 1.29427 59.3365 1.90104 59.7844 2.6875C60.2375 3.46875 60.4641 4.38802 60.4641 5.44531C60.4641 6.50781 60.2349 7.42188 59.7766 8.1875C59.3182 8.94792 58.6542 9.53125 57.7844 9.9375C56.9198 10.3438 55.8729 10.5469 54.6437 10.5469H50.4172V7.82813H54.0969C54.7427 7.82813 55.2792 7.73958 55.7062 7.5625C56.1333 7.38542 56.451 7.11979 56.6594 6.76563C56.8729 6.41146 56.9797 5.97135 56.9797 5.44531C56.9797 4.91406 56.8729 4.46615 56.6594 4.10156C56.451 3.73698 56.1307 3.46094 55.6984 3.27344C55.2714 3.08073 54.7323 2.98438 54.0812 2.98438H51.8V16.2188H48.4172ZM57.0578 8.9375L61.0344 16.2188H57.3L53.4094 8.9375H57.0578Z" fill="#2D3745"></path><path d="M78.6578 8.21875C78.6578 9.96354 78.3271 11.4479 77.6656 12.6719C77.0094 13.8958 76.1135 14.8307 74.9781 15.4766C73.8479 16.1172 72.5771 16.4375 71.1656 16.4375C69.7438 16.4375 68.4677 16.1146 67.3375 15.4688C66.2073 14.8229 65.3141 13.888 64.6578 12.6641C64.0016 11.4401 63.6734 9.95833 63.6734 8.21875C63.6734 6.47396 64.0016 4.98958 64.6578 3.76563C65.3141 2.54167 66.2073 1.60937 67.3375 0.96875C68.4677 0.322917 69.7438 0 71.1656 0C72.5771 0 73.8479 0.322917 74.9781 0.96875C76.1135 1.60937 77.0094 2.54167 77.6656 3.76563C78.3271 4.98958 78.6578 6.47396 78.6578 8.21875ZM75.2281 8.21875C75.2281 7.08854 75.0589 6.13542 74.7203 5.35938C74.387 4.58333 73.9156 3.99479 73.3063 3.59375C72.6969 3.19271 71.9833 2.99219 71.1656 2.99219C70.3479 2.99219 69.6344 3.19271 69.025 3.59375C68.4156 3.99479 67.9417 4.58333 67.6031 5.35938C67.2698 6.13542 67.1031 7.08854 67.1031 8.21875C67.1031 9.34896 67.2698 10.3021 67.6031 11.0781C67.9417 11.8542 68.4156 12.4427 69.025 12.8438C69.6344 13.2448 70.3479 13.4453 71.1656 13.4453C71.9833 13.4453 72.6969 13.2448 73.3063 12.8438C73.9156 12.4427 74.387 11.8542 74.7203 11.0781C75.0589 10.3021 75.2281 9.34896 75.2281 8.21875Z" fill="#2D3745"></path></svg> 